<svg width="29" height="30" viewBox="0 0 29 30" fill="none" xmlns="http://www.w3.org/2000/svg">
<circle cx="14.0393" cy="14.9999" r="14.039" fill="url(#paint0_linear_3808_30197)"/>
<g style="mix-blend-mode:soft-light">
<circle cx="14.0852" cy="15.0492" r="12.3568" stroke="black" stroke-width="0.830441"/>
</g>
<path fill-rule="evenodd" clip-rule="evenodd" d="M19.2744 21.0711C19.2471 21.0987 19.2287 21.117 19.2116 21.1302C19.2286 21.1172 19.2464 21.0994 19.2744 21.0711ZM19.1962 21.1408L19.1645 21.1571C19.1754 21.1525 19.1861 21.147 19.1962 21.1408ZM6.71634 20.6812C6.75303 20.6428 6.79678 20.5982 6.84541 20.5488L6.71634 20.6812ZM21.5 18.4631C21.5071 18.4692 21.5138 18.4756 21.52 18.4823C21.5637 18.5295 21.5863 18.5931 21.5815 18.6581C21.5814 18.6602 21.5811 18.6624 21.5809 18.6646C21.5789 18.68 21.574 18.6958 21.5662 18.7127C21.5581 18.73 21.547 18.7483 21.5327 18.7682C21.5195 18.7867 21.5035 18.8066 21.4848 18.8282C21.4789 18.835 21.4728 18.8419 21.4664 18.849C21.4549 18.8618 21.4425 18.8752 21.4293 18.8893C21.4286 18.89 21.4279 18.8907 21.4272 18.8915C21.425 18.8939 21.4226 18.8963 21.4203 18.8988" fill="white"/>
<path fill-rule="evenodd" clip-rule="evenodd" d="M8.94806 16.386L8.9448 16.386C8.9453 16.386 8.94751 16.386 8.94806 16.386C8.94865 16.386 8.94747 16.386 8.94806 16.386ZM6.37289 13.6181C6.37646 13.6181 6.38013 13.6181 6.38392 13.6181H16.4855M19.2076 13.6181C19.2174 13.6181 19.2231 13.6184 19.2284 13.6197C19.2317 13.6204 19.2348 13.6215 19.2379 13.6228C19.2401 13.6238 19.2423 13.625 19.2444 13.6263C19.2455 13.6269 19.2466 13.6277 19.2477 13.6285C19.2519 13.6317 19.2563 13.6362 19.2633 13.6434L20.5333 14.9327L21.8181 16.2371C21.8351 16.2544 21.8489 16.2685 21.8597 16.2804C21.8745 16.2967 21.8836 16.3089 21.8871 16.3196C21.8879 16.3223 21.8884 16.3249 21.8886 16.3273C21.8899 16.3447 21.8828 16.3617 21.8695 16.373C21.8676 16.3747 21.8653 16.3761 21.8627 16.3774C21.8503 16.3835 21.8303 16.3853 21.7991 16.3858C21.7867 16.386 21.7719 16.386 21.7557 16.386" fill="white"/>
<path fill-rule="evenodd" clip-rule="evenodd" d="M19.2431 11.5852C19.2405 11.5875 19.2381 11.5894 19.2357 11.5909C19.2376 11.5897 19.241 11.5869 19.2431 11.5852C19.2436 11.5848 19.2426 11.5856 19.2431 11.5852ZM21.7575 8.83105L21.8323 8.83264L21.7575 8.83105ZM21.8323 8.83264C21.8143 8.83106 21.7893 8.83105 21.7575 8.83105L21.8323 8.83264ZM8.93949 8.83105L8.91299 8.83264C8.91934 8.8311 8.92601 8.83105 8.93949 8.83105Z" fill="white"/>
<path fill-rule="evenodd" clip-rule="evenodd" d="M8.94316 8.83105L8.91652 8.83265C8.92287 8.83111 8.92965 8.83105 8.94316 8.83105ZM8.92517 16.3847C8.93094 16.3861 8.93708 16.3861 8.94832 16.386L8.92517 16.3847ZM6.93026 21.1831L7.11516 21.1838C7.04512 21.1838 6.98383 21.1839 6.93026 21.1831ZM19.168 21.1571C19.1792 21.1524 19.19 21.1469 19.2003 21.1405L19.168 21.1571ZM21.8359 8.83265L21.7602 8.83105C21.7925 8.83105 21.8178 8.83105 21.8359 8.83265Z" fill="#1E1E1E"/>
<path d="M8.94806 16.3852H16.4855H21.7564C21.7728 16.3852 21.7865 16.3851 21.7991 16.3849C21.8303 16.3844 21.8503 16.3827 21.8627 16.3765C21.8653 16.3752 21.8676 16.3738 21.8696 16.3722C21.8829 16.3609 21.89 16.3438 21.8887 16.3264C21.8885 16.3239 21.8879 16.3214 21.8871 16.3188C21.8836 16.308 21.8745 16.2958 21.8597 16.2795C21.8489 16.2676 21.8351 16.2535 21.8181 16.2363L19.2633 13.6425C19.2544 13.6335 19.2498 13.6287 19.2444 13.6254C19.2423 13.6241 19.2401 13.623 19.2379 13.622C19.2348 13.6206 19.2317 13.6196 19.2284 13.6188C19.2221 13.6172 19.2153 13.6172 19.2018 13.6172H16.4855H6.38392C6.31874 13.6172 6.28597 13.6172 6.27072 13.6302C6.25745 13.6415 6.25052 13.6585 6.25182 13.6759C6.25332 13.696 6.27642 13.7193 6.32256 13.766L8.8859 16.3592C8.89535 16.3688 8.90018 16.3735 8.90571 16.377C8.91063 16.38 8.91603 16.3824 8.92165 16.3838C8.92723 16.3851 8.93315 16.3852 8.94371 16.3852L8.94806 16.3852Z" fill="white"/>
<path fill-rule="evenodd" clip-rule="evenodd" d="M19.2345 11.5939C19.2338 11.5942 19.2353 11.5935 19.2345 11.5939C19.2338 11.5942 19.2309 11.5957 19.2301 11.596C19.2316 11.5953 19.2331 11.5946 19.2345 11.5939Z" fill="white"/>
<path d="M6.39027 11.599H16.49H19.1977L19.2013 11.599L19.2043 11.599C19.2136 11.599 19.2191 11.5989 19.2244 11.5977C19.2273 11.5969 19.2301 11.596 19.2329 11.5947C19.2341 11.5942 19.2354 11.5936 19.2365 11.593C19.2378 11.5923 19.2391 11.5916 19.2403 11.5908C19.2427 11.5893 19.245 11.5875 19.2477 11.5852C19.2486 11.5843 19.2501 11.583 19.2511 11.582L19.2545 11.5787L19.2601 11.5731L21.0998 9.71197L21.8233 8.98006C21.8696 8.93327 21.8927 8.90988 21.8942 8.88981C21.8955 8.8724 21.8884 8.85542 21.8751 8.8441C21.8741 8.84329 21.8731 8.84247 21.872 8.84175C21.8673 8.83871 21.8613 8.83652 21.8537 8.83496C21.8488 8.83396 21.8433 8.8332 21.837 8.83265L21.7612 8.83105L21.0998 8.83106L16.49 8.83106L8.94421 8.83105L8.91757 8.83265C8.91196 8.83401 8.90654 8.83622 8.90163 8.83925C8.89624 8.84259 8.89076 8.84817 8.88182 8.85724L6.4274 11.3491L6.32786 11.4501C6.28186 11.4968 6.25882 11.5202 6.25731 11.5403C6.25723 11.5413 6.25718 11.5424 6.25717 11.5434C6.25692 11.5597 6.26395 11.5754 6.27644 11.586C6.29175 11.599 6.32482 11.599 6.39027 11.599Z" fill="white"/>
<path d="M21.5207 18.4847C21.5145 18.4779 21.5078 18.4715 21.5007 18.4655C21.4353 18.4099 21.2948 18.41 21.0141 18.4102L16.4862 18.4136L9.10222 18.4191C9.04467 18.4191 9.01588 18.4191 8.98882 18.4257C8.9684 18.4306 8.94864 18.4383 8.93027 18.4485L8.92629 18.4508C8.92442 18.4519 8.92257 18.453 8.92074 18.4541C8.90508 18.4639 8.89059 18.4765 8.87087 18.4958C8.86106 18.5054 8.8499 18.5167 8.83653 18.5303L6.84609 20.5512L6.71702 20.6836C6.67723 20.7253 6.64445 20.7613 6.61855 20.7934C6.61275 20.8005 6.6073 20.8075 6.6022 20.8143C6.56646 20.8618 6.54751 20.9003 6.54488 20.9363C6.5422 20.9731 6.54829 21.0095 6.56202 21.0426C6.57598 21.0763 6.59782 21.1067 6.6264 21.131C6.67544 21.1726 6.76664 21.183 6.92742 21.1854L7.11232 21.1861L9.42221 21.1836L15.1452 21.1775L17.7652 21.1776L19.0164 21.1777C19.0519 21.1777 19.0764 21.1777 19.0963 21.1761C19.1087 21.1751 19.1193 21.1736 19.1296 21.1711C19.1416 21.1682 19.1539 21.1642 19.1652 21.1594L19.1969 21.1432C19.2189 21.1296 19.2398 21.1091 19.2751 21.0735L19.2816 21.0669L19.8269 20.5153L21.2798 19.0457C21.3197 19.0054 21.3555 18.9691 21.3874 18.9362L21.4056 18.9173L21.421 18.9012L21.4279 18.8938L21.4299 18.8917C21.4432 18.8776 21.4556 18.8642 21.4671 18.8514C21.4735 18.8443 21.4796 18.8373 21.4854 18.8306C21.5042 18.8089 21.5202 18.7891 21.5334 18.7706C21.5477 18.7507 21.5588 18.7323 21.5669 18.7151C21.5747 18.6982 21.5796 18.6823 21.5815 18.667C21.5818 18.6648 21.582 18.6626 21.5822 18.6604C21.587 18.5955 21.5644 18.5319 21.5207 18.4847Z" fill="white"/>
<defs>
<linearGradient id="paint0_linear_3808_30197" x1="14.0393" y1="0.960937" x2="14.0393" y2="29.0389" gradientUnits="userSpaceOnUse">
<stop stop-color="#CA8A04"/>
<stop offset="1" stop-color="#CA5004"/>
</linearGradient>
</defs>
</svg>
