<svg width="403" height="428" viewBox="0 0 403 428" fill="none" xmlns="http://www.w3.org/2000/svg">
<rect width="403" height="428" fill="black"/>
<path fill-rule="evenodd" clip-rule="evenodd" d="M298.043 100C299.778 100 300.646 100 301.308 100.338C301.891 100.635 302.365 101.109 302.662 101.692C303 102.354 303 103.222 303 104.957V217.84C303 218.6 303 218.979 302.914 219.337C302.838 219.653 302.712 219.956 302.542 220.234C302.349 220.547 302.08 220.815 301.543 221.351L270.963 251.833C268.309 254.478 266.983 255.801 265.844 255.889C264.856 255.966 263.891 255.565 263.248 254.811C262.506 253.942 262.506 252.069 262.506 248.323L262.506 141.125C262.506 139.39 262.506 138.523 262.169 137.86C261.872 137.277 261.398 136.803 260.815 136.506C260.152 136.169 259.285 136.169 257.549 136.169H226.624C224.889 136.169 224.022 136.169 223.359 136.506C222.776 136.803 222.302 137.277 222.005 137.86C221.667 138.523 221.667 139.39 221.667 141.125L221.667 187.884C221.667 189.619 221.667 190.486 221.33 191.149C221.033 191.732 220.559 192.206 219.976 192.503C219.313 192.841 218.446 192.841 216.711 192.841H186.29C184.555 192.841 183.687 192.841 183.025 192.503C182.442 192.206 181.968 191.732 181.671 191.149C181.333 190.486 181.333 189.619 181.333 187.884V128.963C181.333 128.205 181.333 127.826 181.419 127.469C181.495 127.153 181.62 126.851 181.79 126.573C181.982 126.261 182.25 125.993 182.786 125.457L206.815 101.45C207.351 100.915 207.619 100.647 207.931 100.456C208.208 100.286 208.51 100.161 208.826 100.085C209.183 100 209.561 100 210.318 100H298.043Z" fill="white"/>
<path d="M145.451 293.898C143.716 293.898 142.848 293.898 142.185 293.56C141.602 293.263 141.128 292.789 140.831 292.206C140.494 291.543 140.494 290.676 140.494 288.941L140.494 179.516C140.494 175.769 140.494 173.895 139.752 173.026C139.109 172.272 138.143 171.871 137.155 171.948C136.017 172.037 134.69 173.36 132.036 176.007L101.456 206.508C100.919 207.044 100.65 207.312 100.458 207.625C100.288 207.903 100.162 208.205 100.086 208.522C100 208.879 100 209.258 100 210.018L100 323.043C100 324.778 100 325.646 100.338 326.308C100.635 326.891 101.109 327.365 101.692 327.662C102.354 328 103.222 328 104.957 328H191.798C192.554 328 192.931 328 193.287 327.915C193.602 327.839 193.904 327.715 194.18 327.546C194.492 327.356 194.76 327.089 195.295 326.556L220.207 301.762C220.746 301.226 221.015 300.958 221.208 300.645C221.379 300.367 221.505 300.064 221.581 299.747C221.667 299.389 221.667 299.009 221.667 298.249V233.209C221.667 231.474 221.667 230.607 221.329 229.944C221.032 229.361 220.558 228.887 219.976 228.59C219.313 228.253 218.445 228.253 216.71 228.253H186.29C184.555 228.253 183.687 228.253 183.024 228.59C182.441 228.887 181.967 229.361 181.67 229.944C181.333 230.607 181.333 231.474 181.333 233.209L181.333 288.941C181.333 290.676 181.333 291.543 180.995 292.206C180.698 292.789 180.224 293.263 179.641 293.56C178.978 293.898 178.111 293.898 176.376 293.898H145.451Z" fill="white"/>
</svg>
