<svg width="28" height="28" viewBox="0 0 28 28" fill="none" xmlns="http://www.w3.org/2000/svg">
<circle cx="14.0001" cy="14.0001" r="14.0001" fill="url(#paint0_linear_3808_30161)"/>
<circle cx="14.0445" cy="14.0462" r="12.3226" fill="url(#paint1_linear_3808_30161)" stroke="#8F6FEA" stroke-width="0.828139"/>
<rect width="12.2086" height="15.5262" transform="translate(6.23766 20.1699) rotate(-90)" fill="url(#paint2_linear_3808_30161)"/>
<path fill-rule="evenodd" clip-rule="evenodd" d="M19.225 20.0509C19.1978 20.0784 19.1794 20.0966 19.1624 20.1098C19.1793 20.0968 19.1971 20.0791 19.225 20.0509ZM19.147 20.1203L19.1154 20.1366C19.1263 20.132 19.1369 20.1265 19.147 20.1203ZM6.70172 19.662C6.73831 19.6237 6.78193 19.5793 6.83043 19.53L6.70172 19.662ZM21.4444 17.4501C21.4515 17.4561 21.4581 17.4625 21.4644 17.4692C21.508 17.5163 21.5305 17.5797 21.5257 17.6445C21.5255 17.6467 21.5253 17.6488 21.525 17.651C21.5231 17.6663 21.5182 17.6822 21.5104 17.699C21.5024 17.7162 21.4913 17.7345 21.4771 17.7543C21.4638 17.7728 21.4479 17.7926 21.4292 17.8142C21.4234 17.8209 21.4173 17.8278 21.4109 17.8349C21.3994 17.8477 21.3871 17.8611 21.3739 17.8751C21.3732 17.8758 21.3725 17.8765 21.3719 17.8772C21.3696 17.8797 21.3673 17.8821 21.3649 17.8846" fill="#8F6FEA"/>
<path fill-rule="evenodd" clip-rule="evenodd" d="M8.92725 15.3788L8.924 15.3788C8.9245 15.3788 8.9267 15.3787 8.92725 15.3788C8.92784 15.3788 8.92667 15.3788 8.92725 15.3788ZM6.35922 12.6185C6.36278 12.6185 6.36644 12.6185 6.37022 12.6185H16.4438M19.1584 12.6185C19.1681 12.6185 19.1738 12.6188 19.1791 12.6201C19.1824 12.6208 19.1855 12.6219 19.1885 12.6232C19.1908 12.6242 19.1929 12.6254 19.195 12.6266C19.1961 12.6273 19.1972 12.6281 19.1983 12.6289C19.2025 12.6321 19.2069 12.6366 19.2139 12.6437L20.4804 13.9295L21.7616 15.2303C21.7785 15.2475 21.7924 15.2615 21.8031 15.2734C21.8179 15.2897 21.8269 15.3018 21.8304 15.3125C21.8312 15.3152 21.8318 15.3178 21.832 15.3202C21.8332 15.3376 21.8261 15.3545 21.8129 15.3658C21.8109 15.3674 21.8087 15.3689 21.8061 15.3701C21.7937 15.3763 21.7738 15.378 21.7426 15.3786C21.7303 15.3788 21.7155 15.3788 21.6994 15.3788" fill="#8F6FEA"/>
<path fill-rule="evenodd" clip-rule="evenodd" d="M19.1938 10.5912C19.1911 10.5936 19.1888 10.5954 19.1863 10.5969C19.1883 10.5957 19.1917 10.593 19.1938 10.5912C19.1942 10.5908 19.1933 10.5917 19.1938 10.5912ZM21.7012 7.84473L21.7758 7.84631L21.7012 7.84473ZM21.7758 7.84631C21.7579 7.84473 21.7329 7.84473 21.7012 7.84473L21.7758 7.84631ZM8.9187 7.84473L8.89228 7.84631C8.89861 7.84477 8.90526 7.84473 8.9187 7.84473Z" fill="#8F6FEA"/>
<path fill-rule="evenodd" clip-rule="evenodd" d="M8.91689 7.84473L8.89032 7.84632C8.89665 7.84478 8.90341 7.84473 8.91689 7.84473ZM8.89895 15.3774C8.9047 15.3788 8.91082 15.3788 8.92203 15.3788L8.89895 15.3774ZM6.90956 20.1625L7.09395 20.1632C7.02411 20.1633 6.96298 20.1633 6.90956 20.1625ZM19.1134 20.1366C19.1246 20.1319 19.1353 20.1264 19.1456 20.12L19.1134 20.1366ZM21.7739 7.84631L21.6984 7.84473C21.7307 7.84473 21.7558 7.84473 21.7739 7.84631Z" fill="#1E1E1E"/>
<path d="M8.92725 15.3775H16.4438H21.7001C21.7164 15.3775 21.7301 15.3775 21.7426 15.3773C21.7738 15.3768 21.7937 15.375 21.8061 15.3689C21.8087 15.3676 21.811 15.3662 21.8129 15.3645C21.8262 15.3533 21.8333 15.3362 21.832 15.3189C21.8318 15.3164 21.8313 15.3139 21.8304 15.3113C21.8269 15.3006 21.8179 15.2884 21.8031 15.2721C21.7924 15.2602 21.7786 15.2462 21.7616 15.229L19.2139 12.6425C19.205 12.6334 19.2004 12.6287 19.195 12.6254C19.1929 12.6241 19.1908 12.6229 19.1885 12.622C19.1855 12.6206 19.1824 12.6196 19.1791 12.6188C19.1728 12.6172 19.166 12.6172 19.1526 12.6172H16.4438H6.37022C6.30522 12.6172 6.27254 12.6172 6.25733 12.6301C6.2441 12.6414 6.23719 12.6584 6.23849 12.6758C6.23998 12.6958 6.26302 12.7191 6.30903 12.7656L8.86526 15.3516C8.87469 15.3611 8.8795 15.3659 8.88502 15.3693C8.88992 15.3723 8.89531 15.3748 8.90091 15.3761C8.90648 15.3775 8.91238 15.3775 8.92291 15.3775L8.92725 15.3775Z" fill="#8F6FEA"/>
<path fill-rule="evenodd" clip-rule="evenodd" d="M19.1822 10.5967C19.1817 10.597 19.1827 10.5965 19.1822 10.5967C19.1818 10.597 19.1799 10.5979 19.1794 10.5981C19.1804 10.5977 19.1813 10.5972 19.1822 10.5967Z" fill="#8F6FEA"/>
<path d="M6.37245 10.605H16.4442H19.1444L19.148 10.605L19.151 10.605C19.1602 10.605 19.1658 10.6049 19.171 10.6037C19.1739 10.603 19.1767 10.602 19.1795 10.6007C19.1807 10.6002 19.1819 10.5996 19.1831 10.599C19.1844 10.5983 19.1856 10.5976 19.1869 10.5968C19.1893 10.5953 19.1916 10.5936 19.1942 10.5912C19.1952 10.5904 19.1966 10.5891 19.1977 10.588L19.201 10.5848L19.2066 10.5791L21.0412 8.7232L21.7627 7.99332C21.8088 7.94666 21.8319 7.92333 21.8334 7.90332C21.8347 7.88596 21.8276 7.86902 21.8144 7.85774C21.8134 7.85693 21.8123 7.85611 21.8112 7.8554C21.8066 7.85237 21.8006 7.85018 21.793 7.84863C21.7882 7.84763 21.7826 7.84687 21.7763 7.84631L21.7008 7.84473L21.0412 7.84474L16.4442 7.84473L8.91931 7.84473L8.89274 7.84632C8.88715 7.84767 8.88174 7.84987 8.87684 7.8529C8.87147 7.85623 8.866 7.86179 8.85709 7.87084L6.40947 10.3558L6.31021 10.4566C6.26433 10.5031 6.24135 10.5265 6.23985 10.5464C6.23977 10.5475 6.23973 10.5485 6.23971 10.5496C6.23946 10.5658 6.24647 10.5815 6.25892 10.5921C6.27419 10.605 6.30718 10.605 6.37245 10.605Z" fill="#8F6FEA"/>
<path d="M21.4637 17.4698C21.4575 17.4631 21.4508 17.4567 21.4437 17.4507C21.3785 17.3953 21.2385 17.3953 20.9585 17.3955L16.4431 17.3989L9.07961 17.4044C9.02222 17.4044 8.99352 17.4044 8.96653 17.411C8.94616 17.4159 8.92646 17.4236 8.90814 17.4338L8.90417 17.436C8.90231 17.4371 8.90047 17.4382 8.89864 17.4394C8.88302 17.4491 8.86857 17.4616 8.8489 17.4809C8.83912 17.4905 8.82799 17.5018 8.81466 17.5153L6.82974 19.5306L6.70103 19.6626C6.66135 19.7042 6.62866 19.7402 6.60282 19.7721C6.59705 19.7793 6.59161 19.7862 6.58652 19.793C6.55088 19.8403 6.53198 19.8788 6.52936 19.9147C6.52669 19.9514 6.53276 19.9876 6.54646 20.0207C6.56037 20.0543 6.58216 20.0846 6.61065 20.1088C6.65956 20.1503 6.75051 20.1607 6.91084 20.1631L7.09522 20.1638L9.39872 20.1613L15.1059 20.1551L17.7185 20.1553L18.9664 20.1554C19.0017 20.1554 19.0262 20.1553 19.046 20.1538C19.0584 20.1528 19.0689 20.1513 19.0792 20.1488C19.0911 20.1459 19.1034 20.1419 19.1147 20.1372L19.1463 20.1209C19.1682 20.1074 19.1891 20.087 19.2243 20.0515L19.2308 20.0449L19.7746 19.4948L21.2235 18.0293C21.2632 17.9891 21.299 17.9529 21.3308 17.9201L21.3489 17.9012L21.3642 17.8852L21.3712 17.8778L21.3732 17.8757C21.3864 17.8617 21.3987 17.8483 21.4102 17.8355C21.4166 17.8284 21.4227 17.8215 21.4285 17.8148C21.4472 17.7932 21.4631 17.7734 21.4764 17.7549C21.4906 17.7351 21.5017 17.7168 21.5097 17.6996C21.5175 17.6827 21.5224 17.6669 21.5244 17.6516C21.5246 17.6494 21.5249 17.6472 21.525 17.6451C21.5298 17.5803 21.5073 17.5169 21.4637 17.4698Z" fill="#8F6FEA"/>
<defs>
<linearGradient id="paint0_linear_3808_30161" x1="20.7015" y1="-3.58296" x2="9.68726" y2="28.0002" gradientUnits="userSpaceOnUse">
<stop stop-color="white"/>
<stop offset="1" stop-color="#F1E2FF"/>
</linearGradient>
<linearGradient id="paint1_linear_3808_30161" x1="19.943" y1="-1.43001" x2="10.2484" y2="26.3688" gradientUnits="userSpaceOnUse">
<stop stop-color="white"/>
<stop offset="1" stop-color="#F1E2FF"/>
</linearGradient>
<linearGradient id="paint2_linear_3808_30161" x1="9.02626" y1="-1.98676" x2="1.74648" y2="14.4274" gradientUnits="userSpaceOnUse">
<stop stop-color="white"/>
<stop offset="1" stop-color="#F1E2FF"/>
</linearGradient>
</defs>
</svg>
