<svg xmlns="http://www.w3.org/2000/svg" width="163" height="163" viewBox="0 0 163 163" fill="none">
  <circle cx="81.5" cy="81.5" r="81.5" fill="url(#paint0_linear_2271_36620)"/>
  <path d="M75.7967 76.7564V76.7407C75.7967 76.3406 75.7967 76.018 75.7754 75.7567C75.7534 75.4876 75.707 75.2513 75.5956 75.0327C75.4186 74.6855 75.1363 74.4031 74.789 74.2262C74.5704 74.1148 74.3341 74.0684 74.0651 74.0464C73.8038 74.025 73.4811 74.025 73.0811 74.025H73.0653L59.7068 74.025C59.2873 74.025 58.9948 74.0247 58.7671 74.0061C58.5438 73.9879 58.4154 73.9539 58.3182 73.9043C58.1099 73.7982 57.9405 73.6288 57.8343 73.4204C57.7848 73.3232 57.7508 73.1949 57.7325 72.9715C57.7139 72.7438 57.7136 72.4514 57.7136 72.0318V63.6684C57.7136 63.2489 57.7139 62.9564 57.7325 62.7288C57.7508 62.5054 57.7848 62.377 57.8343 62.2798C57.9405 62.0715 58.1099 61.9021 58.3182 61.7959C58.4154 61.7464 58.5438 61.7124 58.7671 61.6941C58.9948 61.6755 59.2873 61.6752 59.7068 61.6752L84.3646 61.6752H84.3806C84.7806 61.6752 85.1032 61.6752 85.3644 61.6539C85.6334 61.6319 85.8697 61.5855 86.0884 61.4741C86.4356 61.2971 86.718 61.0148 86.8949 60.6675C87.0063 60.4489 87.0527 60.2126 87.0747 59.9436C87.0961 59.6823 87.0961 59.3596 87.0961 58.9596V58.9438V37.6129V37.5972C87.0961 37.1971 87.0961 36.8744 87.0747 36.6131C87.0527 36.3441 87.0063 36.1078 86.8949 35.8892C86.718 35.5419 86.4356 35.2596 86.0884 35.0826C85.8697 34.9712 85.6334 34.9248 85.3644 34.9028C85.1032 34.8815 84.7806 34.8815 84.3806 34.8815H84.3646H77.7899H77.774C77.374 34.8815 77.0514 34.8815 76.7901 34.9028C76.5211 34.9248 76.2848 34.9712 76.0662 35.0826C75.7189 35.2596 75.4366 35.5419 75.2596 35.8892C75.1483 36.1078 75.1018 36.3441 75.0798 36.6131C75.0585 36.8744 75.0585 37.1971 75.0585 37.5972V37.6129V45.9665C75.0585 46.386 75.0582 46.6784 75.0396 46.9061C75.0214 47.1295 74.9873 47.2578 74.9378 47.355C74.8316 47.5634 74.6622 47.7328 74.4539 47.839C74.3567 47.8885 74.2283 47.9225 74.005 47.9408C73.7773 47.9594 73.4848 47.9597 73.0653 47.9597H48.166H48.1501C47.7501 47.9597 47.4275 47.9596 47.1662 47.981C46.8972 48.003 46.6609 48.0494 46.4423 48.1608C46.095 48.3377 45.8127 48.6201 45.6358 48.9673C45.5244 49.186 45.4779 49.4223 45.4559 49.6913C45.4346 49.9526 45.4346 50.2752 45.4346 50.6753L45.4346 50.6911L45.4346 77.714L45.4346 77.7559C45.4345 78.0754 45.4344 78.2966 45.4853 78.509L45.8439 78.4232L45.4853 78.509C45.5302 78.6967 45.6042 78.8762 45.7048 79.0409C45.8186 79.2274 45.9746 79.3841 46.2 79.6106L46.2295 79.6403L53.4355 86.8844L53.4653 86.9144C53.6922 87.1426 53.8492 87.3006 54.0365 87.4158C54.202 87.5176 54.3825 87.5927 54.5715 87.6382C54.7852 87.6897 55.008 87.6897 55.3298 87.6896L55.372 87.6896H73.0653H73.081C73.4811 87.6896 73.8038 87.6896 74.0651 87.6682C74.3341 87.6462 74.5704 87.5998 74.789 87.4884C75.1363 87.3115 75.4186 87.0291 75.5956 86.6819C75.707 86.4632 75.7534 86.2269 75.7754 85.9579C75.7967 85.6966 75.7967 85.3739 75.7967 84.9739V84.9581V76.7564ZM107.304 98.0463C107.304 98.4658 107.304 98.7582 107.285 98.9859C107.267 99.2093 107.233 99.3376 107.183 99.4348C107.077 99.6432 106.908 99.8126 106.7 99.9188C106.602 99.9683 106.474 100.002 106.251 100.021C106.023 100.039 105.73 100.039 105.311 100.039L77.7899 100.039H77.774C77.374 100.039 77.0514 100.039 76.7901 100.061C76.5211 100.083 76.2848 100.129 76.0662 100.241C75.7189 100.418 75.4366 100.7 75.2596 101.047C75.1483 101.266 75.1018 101.502 75.0798 101.771C75.0585 102.032 75.0585 102.355 75.0585 102.755V102.771V113.386V124.011V124.026C75.0585 124.427 75.0585 124.749 75.0798 125.011C75.1018 125.28 75.1483 125.516 75.2596 125.734C75.4366 126.082 75.7189 126.364 76.0662 126.541C76.2848 126.652 76.5211 126.699 76.7901 126.721C77.0514 126.742 77.3741 126.742 77.7741 126.742L77.7899 126.742H84.3646L84.3804 126.742C84.7805 126.742 85.1031 126.742 85.3644 126.721C85.6334 126.699 85.8697 126.652 86.0884 126.541C86.4356 126.364 86.718 126.082 86.8949 125.734C87.0063 125.516 87.0527 125.28 87.0747 125.011C87.0961 124.749 87.0961 124.427 87.0961 124.026V124.011V115.748C87.0961 115.329 87.0963 115.036 87.1149 114.809C87.1332 114.585 87.1672 114.457 87.2167 114.36C87.3229 114.151 87.4923 113.982 87.7007 113.876C87.7979 113.826 87.9262 113.792 88.1496 113.774C88.3773 113.755 88.6697 113.755 89.0892 113.755L116.192 113.755H116.208C116.608 113.755 116.931 113.755 117.192 113.734C117.461 113.712 117.698 113.665 117.916 113.554C118.263 113.377 118.546 113.095 118.723 112.747C118.834 112.529 118.88 112.292 118.902 112.023C118.924 111.762 118.924 111.44 118.924 111.04V111.024V84.2829L118.924 84.2412C118.924 83.9225 118.924 83.7019 118.873 83.4899C118.829 83.3027 118.755 83.1235 118.655 82.959C118.542 82.7729 118.386 82.6163 118.162 82.39L118.133 82.3603L110.674 74.8339L110.645 74.804C110.418 74.5747 110.26 74.4159 110.073 74.3002C109.907 74.1979 109.726 74.1224 109.537 74.0767C109.323 74.025 109.099 74.025 108.777 74.0251L108.734 74.0251H89.0892H89.0735C88.6734 74.0251 88.3508 74.0251 88.0895 74.0465C87.8204 74.0684 87.5841 74.1149 87.3655 74.2263C87.0183 74.4032 86.7359 74.6855 86.559 75.0328C86.4476 75.2514 86.4012 75.4877 86.3792 75.7568C86.3578 76.018 86.3578 76.3407 86.3578 76.7408V76.7565V84.9582V84.974C86.3578 85.374 86.3578 85.6967 86.3792 85.958C86.4012 86.227 86.4476 86.4633 86.559 86.682C86.7359 87.0292 87.0183 87.3115 87.3655 87.4885C87.5841 87.5999 87.8204 87.6463 88.0895 87.6683C88.3508 87.6896 88.6734 87.6896 89.0735 87.6896H89.0892L105.311 87.6896C105.73 87.6896 106.023 87.6899 106.251 87.7085C106.474 87.7268 106.602 87.7608 106.7 87.8103C106.908 87.9165 107.077 88.0859 107.183 88.2943C107.233 88.3915 107.267 88.5198 107.285 88.7432C107.304 88.9709 107.304 89.2633 107.304 89.6828V98.0463Z" fill="white" stroke="white" stroke-width="0.73822"/>
  <mask id="path-3-outside-1_2271_36620" maskUnits="userSpaceOnUse" x="11" y="13" width="55" height="137" fill="black">
    <rect fill="white" x="11" y="13" width="55" height="137"/>
    <path d="M63.8493 146.471C63.6263 147.265 63.5148 147.662 63.2665 147.926C63.0528 148.153 62.754 148.315 62.4469 148.369C62.09 148.431 61.7091 148.31 60.9473 148.069C47.1222 143.681 34.9755 135.108 26.2033 123.508C16.9555 111.279 11.9669 96.3583 12.0002 81.0263C12.0334 65.6943 17.0868 50.7951 26.3876 38.6064C35.2101 27.0446 47.3939 18.5251 61.2379 14.1971C62.0008 13.9587 62.3822 13.8394 62.7388 13.9037C63.0456 13.959 63.3438 14.1216 63.5565 14.3496C63.8036 14.6146 63.9134 15.0122 64.1329 15.8074L64.7432 18.018C64.9634 18.8158 65.0736 19.2148 65.008 19.5542C64.949 19.8604 64.8073 20.1214 64.5827 20.3377C64.3337 20.5776 63.9248 20.7071 63.1068 20.9662C50.7402 24.883 39.8591 32.5207 31.9668 42.8636C23.596 53.8335 19.048 67.2428 19.018 81.0415C18.9881 94.8403 23.4778 108.269 31.8009 119.275C39.6482 129.652 50.4961 137.337 62.8455 141.308C63.6624 141.57 64.0708 141.702 64.3187 141.943C64.5423 142.16 64.6829 142.422 64.7407 142.728C64.8047 143.068 64.6928 143.466 64.4691 144.263L63.8493 146.471Z"/>
  </mask>
  <path d="M63.8493 146.471C63.6263 147.265 63.5148 147.662 63.2665 147.926C63.0528 148.153 62.754 148.315 62.4469 148.369C62.09 148.431 61.7091 148.31 60.9473 148.069C47.1222 143.681 34.9755 135.108 26.2033 123.508C16.9555 111.279 11.9669 96.3583 12.0002 81.0263C12.0334 65.6943 17.0868 50.7951 26.3876 38.6064C35.2101 27.0446 47.3939 18.5251 61.2379 14.1971C62.0008 13.9587 62.3822 13.8394 62.7388 13.9037C63.0456 13.959 63.3438 14.1216 63.5565 14.3496C63.8036 14.6146 63.9134 15.0122 64.1329 15.8074L64.7432 18.018C64.9634 18.8158 65.0736 19.2148 65.008 19.5542C64.949 19.8604 64.8073 20.1214 64.5827 20.3377C64.3337 20.5776 63.9248 20.7071 63.1068 20.9662C50.7402 24.883 39.8591 32.5207 31.9668 42.8636C23.596 53.8335 19.048 67.2428 19.018 81.0415C18.9881 94.8403 23.4778 108.269 31.8009 119.275C39.6482 129.652 50.4961 137.337 62.8455 141.308C63.6624 141.57 64.0708 141.702 64.3187 141.943C64.5423 142.16 64.6829 142.422 64.7407 142.728C64.8047 143.068 64.6928 143.466 64.4691 144.263L63.8493 146.471Z" fill="white"/>
  <path d="M63.8493 146.471C63.6263 147.265 63.5148 147.662 63.2665 147.926C63.0528 148.153 62.754 148.315 62.4469 148.369C62.09 148.431 61.7091 148.31 60.9473 148.069C47.1222 143.681 34.9755 135.108 26.2033 123.508C16.9555 111.279 11.9669 96.3583 12.0002 81.0263C12.0334 65.6943 17.0868 50.7951 26.3876 38.6064C35.2101 27.0446 47.3939 18.5251 61.2379 14.1971C62.0008 13.9587 62.3822 13.8394 62.7388 13.9037C63.0456 13.959 63.3438 14.1216 63.5565 14.3496C63.8036 14.6146 63.9134 15.0122 64.1329 15.8074L64.7432 18.018C64.9634 18.8158 65.0736 19.2148 65.008 19.5542C64.949 19.8604 64.8073 20.1214 64.5827 20.3377C64.3337 20.5776 63.9248 20.7071 63.1068 20.9662C50.7402 24.883 39.8591 32.5207 31.9668 42.8636C23.596 53.8335 19.048 67.2428 19.018 81.0415C18.9881 94.8403 23.4778 108.269 31.8009 119.275C39.6482 129.652 50.4961 137.337 62.8455 141.308C63.6624 141.57 64.0708 141.702 64.3187 141.943C64.5423 142.16 64.6829 142.422 64.7407 142.728C64.8047 143.068 64.6928 143.466 64.4691 144.263L63.8493 146.471Z" stroke="white" stroke-width="1.47644" mask="url(#path-3-outside-1_2271_36620)"/>
  <mask id="path-4-outside-2_2271_36620" maskUnits="userSpaceOnUse" x="98.3584" y="12.3574" width="55" height="137" fill="black">
    <rect fill="white" x="98.3584" y="12.3574" width="55" height="137"/>
    <path d="M100.509 15.8865C100.732 15.0922 100.844 14.6951 101.092 14.4312C101.306 14.2042 101.604 14.0429 101.912 13.9889C102.268 13.9262 102.649 14.0471 103.411 14.2888C117.236 18.6768 129.383 27.2492 138.155 38.8492C147.403 51.0781 152.392 65.9992 152.358 81.3311C152.325 96.6631 147.272 111.562 137.971 123.751C129.148 135.313 116.965 143.832 103.12 148.16C102.358 148.399 101.976 148.518 101.62 148.454C101.313 148.398 101.015 148.236 100.802 148.008C100.555 147.743 100.445 147.345 100.225 146.55L99.6152 144.339C99.395 143.542 99.2848 143.143 99.3504 142.803C99.4094 142.497 99.5511 142.236 99.7757 142.02C100.025 141.78 100.434 141.65 101.252 141.391C113.618 137.474 124.499 129.837 132.392 119.494C140.762 108.524 145.31 95.1147 145.34 81.3159C145.37 67.5171 140.881 54.0882 132.558 43.0821C124.71 32.7051 113.862 25.0202 101.513 21.0497C100.696 20.7871 100.288 20.6558 100.04 20.4148C99.8161 20.1975 99.6755 19.9359 99.6177 19.6295C99.5537 19.2898 99.6656 18.8913 99.8893 18.0944L100.509 15.8865Z"/>
  </mask>
  <path d="M100.509 15.8865C100.732 15.0922 100.844 14.6951 101.092 14.4312C101.306 14.2042 101.604 14.0429 101.912 13.9889C102.268 13.9262 102.649 14.0471 103.411 14.2888C117.236 18.6768 129.383 27.2492 138.155 38.8492C147.403 51.0781 152.392 65.9992 152.358 81.3311C152.325 96.6631 147.272 111.562 137.971 123.751C129.148 135.313 116.965 143.832 103.12 148.16C102.358 148.399 101.976 148.518 101.62 148.454C101.313 148.398 101.015 148.236 100.802 148.008C100.555 147.743 100.445 147.345 100.225 146.55L99.6152 144.339C99.395 143.542 99.2848 143.143 99.3504 142.803C99.4094 142.497 99.5511 142.236 99.7757 142.02C100.025 141.78 100.434 141.65 101.252 141.391C113.618 137.474 124.499 129.837 132.392 119.494C140.762 108.524 145.31 95.1147 145.34 81.3159C145.37 67.5171 140.881 54.0882 132.558 43.0821C124.71 32.7051 113.862 25.0202 101.513 21.0497C100.696 20.7871 100.288 20.6558 100.04 20.4148C99.8161 20.1975 99.6755 19.9359 99.6177 19.6295C99.5537 19.2898 99.6656 18.8913 99.8893 18.0944L100.509 15.8865Z" fill="white"/>
  <path d="M100.509 15.8865C100.732 15.0922 100.844 14.6951 101.092 14.4312C101.306 14.2042 101.604 14.0429 101.912 13.9889C102.268 13.9262 102.649 14.0471 103.411 14.2888C117.236 18.6768 129.383 27.2492 138.155 38.8492C147.403 51.0781 152.392 65.9992 152.358 81.3311C152.325 96.6631 147.272 111.562 137.971 123.751C129.148 135.313 116.965 143.832 103.12 148.16C102.358 148.399 101.976 148.518 101.62 148.454C101.313 148.398 101.015 148.236 100.802 148.008C100.555 147.743 100.445 147.345 100.225 146.55L99.6152 144.339C99.395 143.542 99.2848 143.143 99.3504 142.803C99.4094 142.497 99.5511 142.236 99.7757 142.02C100.025 141.78 100.434 141.65 101.252 141.391C113.618 137.474 124.499 129.837 132.392 119.494C140.762 108.524 145.31 95.1147 145.34 81.3159C145.37 67.5171 140.881 54.0882 132.558 43.0821C124.71 32.7051 113.862 25.0202 101.513 21.0497C100.696 20.7871 100.288 20.6558 100.04 20.4148C99.8161 20.1975 99.6755 19.9359 99.6177 19.6295C99.5537 19.2898 99.6656 18.8913 99.8893 18.0944L100.509 15.8865Z" stroke="white" stroke-width="1.47644" mask="url(#path-4-outside-2_2271_36620)"/>
  <defs>
    <linearGradient id="paint0_linear_2271_36620" x1="81.5" y1="0" x2="81.5" y2="163" gradientUnits="userSpaceOnUse">
      <stop stop-color="#67A635"/>
      <stop offset="1" stop-color="#005B30"/>
    </linearGradient>
  </defs>
</svg>