<svg xmlns="http://www.w3.org/2000/svg" width="163" height="163" viewBox="0 0 163 163" fill="none">
  <circle cx="81.5" cy="81.5" r="81.5" fill="url(#paint0_linear_2271_36607)"/>
  <path d="M74.7459 77.7018V77.686C74.7459 77.286 74.7459 76.9633 74.7246 76.702C74.7026 76.433 74.6562 76.1967 74.5448 75.978C74.3678 75.6308 74.0855 75.3484 73.7382 75.1715C73.5196 75.0601 73.2833 75.0137 73.0143 74.9917C72.753 74.9703 72.4303 74.9703 72.0303 74.9703H72.0145L58.656 74.9703C58.2365 74.9703 57.944 74.9701 57.7164 74.9514C57.493 74.9332 57.3647 74.8992 57.2674 74.8496C57.0591 74.7435 56.8897 74.5741 56.7835 74.3657C56.734 74.2685 56.7 74.1402 56.6817 73.9168C56.6631 73.6891 56.6628 73.3967 56.6628 72.9771V64.6137C56.6628 64.1942 56.6631 63.9018 56.6817 63.6741C56.7 63.4507 56.734 63.3224 56.7835 63.2252C56.8897 63.0168 57.0591 62.8474 57.2674 62.7412C57.3647 62.6917 57.493 62.6577 57.7164 62.6394C57.944 62.6208 58.2365 62.6205 58.656 62.6205L83.3139 62.6206H83.3298C83.7298 62.6206 84.0524 62.6206 84.3136 62.5992C84.5827 62.5772 84.819 62.5308 85.0376 62.4194C85.3848 62.2425 85.6672 61.9601 85.8441 61.6129C85.9555 61.3942 86.0019 61.1579 86.0239 60.8889C86.0453 60.6276 86.0453 60.3049 86.0453 59.9049V59.8891V38.5582V38.5425C86.0453 38.1424 86.0453 37.8197 86.0239 37.5584C86.0019 37.2894 85.9555 37.0531 85.8441 36.8345C85.6672 36.4872 85.3848 36.2049 85.0376 36.028C84.819 35.9166 84.5827 35.8701 84.3136 35.8481C84.0524 35.8268 83.7298 35.8268 83.3298 35.8268H83.3139H76.7391H76.7232C76.3232 35.8268 76.0006 35.8268 75.7393 35.8481C75.4703 35.8701 75.234 35.9166 75.0154 36.028C74.6681 36.2049 74.3858 36.4872 74.2089 36.8345C74.0975 37.0531 74.051 37.2894 74.0291 37.5584C74.0077 37.8197 74.0077 38.1424 74.0077 38.5425V38.5582V46.9118C74.0077 47.3313 74.0074 47.6238 73.9888 47.8514C73.9706 48.0748 73.9366 48.2031 73.887 48.3004C73.7809 48.5087 73.6115 48.6781 73.4031 48.7843C73.3059 48.8338 73.1776 48.8678 72.9542 48.8861C72.7265 48.9047 72.4341 48.905 72.0145 48.905H47.1152H47.0993C46.6993 48.905 46.3767 48.905 46.1155 48.9263C45.8464 48.9483 45.6101 48.9947 45.3915 49.1061C45.0442 49.2831 44.7619 49.5654 44.585 49.9127C44.4736 50.1313 44.4271 50.3676 44.4052 50.6366C44.3838 50.8979 44.3838 51.2205 44.3838 51.6206L44.3838 51.6364L44.3838 78.6593L44.3838 78.7012C44.3837 79.0207 44.3837 79.2419 44.4345 79.4543L44.7931 79.3685L44.4345 79.4543C44.4794 79.642 44.5535 79.8215 44.654 79.9862C44.7678 80.1727 44.9238 80.3294 45.1492 80.5559L45.1787 80.5856L52.3847 87.8297L52.4145 87.8597C52.6414 88.0879 52.7985 88.2459 52.9857 88.3611C53.1512 88.463 53.3318 88.538 53.5207 88.5835C53.7344 88.635 53.9572 88.635 54.279 88.6349L54.3212 88.6349H72.0145H72.0303C72.4303 88.6349 72.753 88.6349 73.0143 88.6135C73.2833 88.5915 73.5196 88.5451 73.7382 88.4337C74.0855 88.2568 74.3678 87.9744 74.5448 87.6272C74.6562 87.4086 74.7026 87.1723 74.7246 86.9032C74.7459 86.6419 74.7459 86.3193 74.7459 85.9192V85.9035V77.7018ZM106.253 98.9916C106.253 99.4111 106.253 99.7036 106.234 99.9312C106.216 100.155 106.182 100.283 106.133 100.38C106.027 100.589 105.857 100.758 105.649 100.864C105.552 100.914 105.423 100.948 105.2 100.966C104.972 100.984 104.68 100.985 104.26 100.985L76.7391 100.985H76.7232C76.3232 100.985 76.0006 100.985 75.7393 101.006C75.4703 101.028 75.234 101.075 75.0154 101.186C74.6681 101.363 74.3858 101.645 74.2089 101.992C74.0975 102.211 74.051 102.447 74.0291 102.716C74.0077 102.978 74.0077 103.3 74.0077 103.7V103.716V114.331V124.956V124.972C74.0077 125.372 74.0077 125.695 74.0291 125.956C74.051 126.225 74.0975 126.461 74.2089 126.68C74.3858 127.027 74.6681 127.309 75.0154 127.486C75.234 127.598 75.4703 127.644 75.7393 127.666C76.0006 127.687 76.3233 127.687 76.7233 127.687L76.7391 127.687H83.3139L83.3297 127.687C83.7297 127.687 84.0524 127.687 84.3136 127.666C84.5827 127.644 84.819 127.598 85.0376 127.486C85.3848 127.309 85.6672 127.027 85.8441 126.68C85.9555 126.461 86.0019 126.225 86.0239 125.956C86.0453 125.695 86.0453 125.372 86.0453 124.972V124.956V116.694C86.0453 116.274 86.0456 115.982 86.0642 115.754C86.0824 115.531 86.1164 115.402 86.166 115.305C86.2721 115.097 86.4415 114.927 86.6499 114.821C86.7471 114.772 86.8754 114.738 87.0988 114.719C87.3265 114.701 87.6189 114.7 88.0385 114.7L115.142 114.7H115.157C115.557 114.7 115.88 114.7 116.141 114.679C116.41 114.657 116.647 114.611 116.865 114.499C117.213 114.322 117.495 114.04 117.672 113.693C117.783 113.474 117.83 113.238 117.852 112.969C117.873 112.707 117.873 112.385 117.873 111.985V111.969V85.2282L117.873 85.1865C117.873 84.8678 117.873 84.6472 117.823 84.4352C117.778 84.248 117.704 84.0688 117.604 83.9044C117.491 83.7182 117.336 83.5616 117.111 83.3353L117.082 83.3056L109.624 75.7793L109.594 75.7493C109.367 75.52 109.21 75.3613 109.022 75.2455C108.856 75.1432 108.675 75.0677 108.486 75.022C108.272 74.9703 108.048 74.9703 107.726 74.9704L107.683 74.9704H88.0385H88.0227C87.6227 74.9704 87.3 74.9704 87.0387 74.9918C86.7697 75.0138 86.5334 75.0602 86.3147 75.1716C85.9675 75.3485 85.6851 75.6309 85.5082 75.9781C85.3968 76.1967 85.3504 76.433 85.3284 76.7021C85.307 76.9634 85.307 77.286 85.3071 77.6861V77.7018V85.9035V85.9193C85.307 86.3193 85.307 86.642 85.3284 86.9033C85.3504 87.1723 85.3968 87.4086 85.5082 87.6273C85.6851 87.9745 85.9675 88.2569 86.3147 88.4338C86.5334 88.5452 86.7697 88.5916 87.0387 88.6136C87.3 88.635 87.6227 88.635 88.0227 88.635H88.0385L104.26 88.635C104.68 88.635 104.972 88.6352 105.2 88.6539C105.423 88.6721 105.552 88.7061 105.649 88.7557C105.857 88.8618 106.027 89.0312 106.133 89.2396C106.182 89.3368 106.216 89.4651 106.234 89.6885C106.253 89.9162 106.253 90.2086 106.253 90.6282V98.9916Z" fill="url(#paint1_linear_2271_36607)" stroke="url(#paint2_linear_2271_36607)" stroke-width="0.73822"/>
  <mask id="path-3-outside-1_2271_36607" maskUnits="userSpaceOnUse" x="9.94922" y="13.9453" width="55" height="137" fill="black">
    <rect fill="white" x="9.94922" y="13.9453" width="55" height="137"/>
    <path d="M62.7985 147.416C62.5755 148.21 62.4641 148.608 62.2157 148.872C62.0021 149.099 61.7032 149.26 61.3961 149.314C61.0392 149.377 60.6583 149.256 59.8965 149.014C46.0714 144.626 33.9247 136.054 25.1525 124.454C15.9047 112.225 10.9161 97.3036 10.9494 81.9716C10.9827 66.6396 16.036 51.7404 25.3369 39.5517C34.1593 27.9899 46.3431 19.4704 60.1871 15.1425C60.95 14.904 61.3314 14.7847 61.688 14.849C61.9948 14.9043 62.293 15.0669 62.5057 15.2949C62.7529 15.5599 62.8626 15.9575 63.0822 16.7527L63.6924 18.9633C63.9127 19.7612 64.0228 20.1601 63.9573 20.4995C63.8982 20.8057 63.7565 21.0667 63.5319 21.283C63.283 21.5229 62.874 21.6524 62.056 21.9115C49.6894 25.8283 38.8083 33.466 30.916 43.8089C22.5452 54.7788 17.9972 68.1881 17.9673 81.9868C17.9373 95.7856 22.4271 109.215 30.7501 120.221C38.5975 130.598 49.4453 138.283 61.7947 142.253C62.6116 142.516 63.02 142.647 63.268 142.888C63.4916 143.105 63.6321 143.367 63.6899 143.673C63.7539 144.013 63.6421 144.411 63.4183 145.208L62.7985 147.416Z"/>
  </mask>
  <path d="M62.7985 147.416C62.5755 148.21 62.4641 148.608 62.2157 148.872C62.0021 149.099 61.7032 149.26 61.3961 149.314C61.0392 149.377 60.6583 149.256 59.8965 149.014C46.0714 144.626 33.9247 136.054 25.1525 124.454C15.9047 112.225 10.9161 97.3036 10.9494 81.9716C10.9827 66.6396 16.036 51.7404 25.3369 39.5517C34.1593 27.9899 46.3431 19.4704 60.1871 15.1425C60.95 14.904 61.3314 14.7847 61.688 14.849C61.9948 14.9043 62.293 15.0669 62.5057 15.2949C62.7529 15.5599 62.8626 15.9575 63.0822 16.7527L63.6924 18.9633C63.9127 19.7612 64.0228 20.1601 63.9573 20.4995C63.8982 20.8057 63.7565 21.0667 63.5319 21.283C63.283 21.5229 62.874 21.6524 62.056 21.9115C49.6894 25.8283 38.8083 33.466 30.916 43.8089C22.5452 54.7788 17.9972 68.1881 17.9673 81.9868C17.9373 95.7856 22.4271 109.215 30.7501 120.221C38.5975 130.598 49.4453 138.283 61.7947 142.253C62.6116 142.516 63.02 142.647 63.268 142.888C63.4916 143.105 63.6321 143.367 63.6899 143.673C63.7539 144.013 63.6421 144.411 63.4183 145.208L62.7985 147.416Z" fill="url(#paint3_linear_2271_36607)"/>
  <path d="M62.7985 147.416C62.5755 148.21 62.4641 148.608 62.2157 148.872C62.0021 149.099 61.7032 149.26 61.3961 149.314C61.0392 149.377 60.6583 149.256 59.8965 149.014C46.0714 144.626 33.9247 136.054 25.1525 124.454C15.9047 112.225 10.9161 97.3036 10.9494 81.9716C10.9827 66.6396 16.036 51.7404 25.3369 39.5517C34.1593 27.9899 46.3431 19.4704 60.1871 15.1425C60.95 14.904 61.3314 14.7847 61.688 14.849C61.9948 14.9043 62.293 15.0669 62.5057 15.2949C62.7529 15.5599 62.8626 15.9575 63.0822 16.7527L63.6924 18.9633C63.9127 19.7612 64.0228 20.1601 63.9573 20.4995C63.8982 20.8057 63.7565 21.0667 63.5319 21.283C63.283 21.5229 62.874 21.6524 62.056 21.9115C49.6894 25.8283 38.8083 33.466 30.916 43.8089C22.5452 54.7788 17.9972 68.1881 17.9673 81.9868C17.9373 95.7856 22.4271 109.215 30.7501 120.221C38.5975 130.598 49.4453 138.283 61.7947 142.253C62.6116 142.516 63.02 142.647 63.268 142.888C63.4916 143.105 63.6321 143.367 63.6899 143.673C63.7539 144.013 63.6421 144.411 63.4183 145.208L62.7985 147.416Z" stroke="url(#paint4_linear_2271_36607)" stroke-width="1.47644" mask="url(#path-3-outside-1_2271_36607)"/>
  <mask id="path-4-outside-2_2271_36607" maskUnits="userSpaceOnUse" x="97.3076" y="13.3027" width="55" height="137" fill="black">
    <rect fill="white" x="97.3076" y="13.3027" width="55" height="137"/>
    <path d="M99.4583 16.8318C99.6813 16.0376 99.7928 15.6404 100.041 15.3765C100.255 15.1495 100.554 14.9882 100.861 14.9342C101.218 14.8715 101.599 14.9924 102.36 15.2342C116.185 19.6222 128.332 28.1945 137.104 39.7945C146.352 52.0235 151.341 66.9445 151.307 82.2764C151.274 97.6084 146.221 112.508 136.92 124.696C128.098 136.258 115.914 144.778 102.07 149.106C101.307 149.344 100.925 149.463 100.569 149.399C100.262 149.344 99.9638 149.181 99.7511 148.953C99.504 148.688 99.3942 148.291 99.1747 147.495L98.5644 145.285C98.3442 144.487 98.2341 144.088 98.2996 143.748C98.3587 143.442 98.5004 143.181 98.7249 142.965C98.9739 142.725 99.3829 142.596 100.201 142.337C112.567 138.42 123.449 130.782 131.341 120.439C139.712 109.469 144.26 96.06 144.29 82.2612C144.32 68.4624 139.83 55.0335 131.507 44.0274C123.659 33.6504 112.812 25.9655 100.462 21.995C99.6452 21.7324 99.2368 21.6011 98.9889 21.3601C98.7653 21.1428 98.6247 20.8812 98.567 20.5748C98.5029 20.2351 98.6148 19.8366 98.8385 19.0397L99.4583 16.8318Z"/>
  </mask>
  <path d="M99.4583 16.8318C99.6813 16.0376 99.7928 15.6404 100.041 15.3765C100.255 15.1495 100.554 14.9882 100.861 14.9342C101.218 14.8715 101.599 14.9924 102.36 15.2342C116.185 19.6222 128.332 28.1945 137.104 39.7945C146.352 52.0235 151.341 66.9445 151.307 82.2764C151.274 97.6084 146.221 112.508 136.92 124.696C128.098 136.258 115.914 144.778 102.07 149.106C101.307 149.344 100.925 149.463 100.569 149.399C100.262 149.344 99.9638 149.181 99.7511 148.953C99.504 148.688 99.3942 148.291 99.1747 147.495L98.5644 145.285C98.3442 144.487 98.2341 144.088 98.2996 143.748C98.3587 143.442 98.5004 143.181 98.7249 142.965C98.9739 142.725 99.3829 142.596 100.201 142.337C112.567 138.42 123.449 130.782 131.341 120.439C139.712 109.469 144.26 96.06 144.29 82.2612C144.32 68.4624 139.83 55.0335 131.507 44.0274C123.659 33.6504 112.812 25.9655 100.462 21.995C99.6452 21.7324 99.2368 21.6011 98.9889 21.3601C98.7653 21.1428 98.6247 20.8812 98.567 20.5748C98.5029 20.2351 98.6148 19.8366 98.8385 19.0397L99.4583 16.8318Z" fill="url(#paint5_linear_2271_36607)"/>
  <path d="M99.4583 16.8318C99.6813 16.0376 99.7928 15.6404 100.041 15.3765C100.255 15.1495 100.554 14.9882 100.861 14.9342C101.218 14.8715 101.599 14.9924 102.36 15.2342C116.185 19.6222 128.332 28.1945 137.104 39.7945C146.352 52.0235 151.341 66.9445 151.307 82.2764C151.274 97.6084 146.221 112.508 136.92 124.696C128.098 136.258 115.914 144.778 102.07 149.106C101.307 149.344 100.925 149.463 100.569 149.399C100.262 149.344 99.9638 149.181 99.7511 148.953C99.504 148.688 99.3942 148.291 99.1747 147.495L98.5644 145.285C98.3442 144.487 98.2341 144.088 98.2996 143.748C98.3587 143.442 98.5004 143.181 98.7249 142.965C98.9739 142.725 99.3829 142.596 100.201 142.337C112.567 138.42 123.449 130.782 131.341 120.439C139.712 109.469 144.26 96.06 144.29 82.2612C144.32 68.4624 139.83 55.0335 131.507 44.0274C123.659 33.6504 112.812 25.9655 100.462 21.995C99.6452 21.7324 99.2368 21.6011 98.9889 21.3601C98.7653 21.1428 98.6247 20.8812 98.567 20.5748C98.5029 20.2351 98.6148 19.8366 98.8385 19.0397L99.4583 16.8318Z" stroke="url(#paint6_linear_2271_36607)" stroke-width="1.47644" mask="url(#path-4-outside-2_2271_36607)"/>
  <defs>
    <linearGradient id="paint0_linear_2271_36607" x1="81.5" y1="0" x2="81.5" y2="163" gradientUnits="userSpaceOnUse">
      <stop stop-color="white"/>
      <stop offset="1" stop-color="#BDFFAC"/>
    </linearGradient>
    <linearGradient id="paint1_linear_2271_36607" x1="44.7529" y1="81.7571" x2="117.504" y2="81.7571" gradientUnits="userSpaceOnUse">
      <stop stop-color="#67A635"/>
      <stop offset="1" stop-color="#005B30"/>
    </linearGradient>
    <linearGradient id="paint2_linear_2271_36607" x1="44.7529" y1="81.7571" x2="117.504" y2="81.7571" gradientUnits="userSpaceOnUse">
      <stop stop-color="#67A635"/>
      <stop offset="1" stop-color="#005B30"/>
    </linearGradient>
    <linearGradient id="paint3_linear_2271_36607" x1="81.1282" y1="11.9453" x2="81.1282" y2="152.303" gradientUnits="userSpaceOnUse">
      <stop stop-color="#67A635"/>
      <stop offset="1" stop-color="#005B30"/>
    </linearGradient>
    <linearGradient id="paint4_linear_2271_36607" x1="81.1282" y1="11.9453" x2="81.1282" y2="152.303" gradientUnits="userSpaceOnUse">
      <stop stop-color="#67A635"/>
      <stop offset="1" stop-color="#005B30"/>
    </linearGradient>
    <linearGradient id="paint5_linear_2271_36607" x1="81.1286" y1="152.303" x2="81.1286" y2="11.9455" gradientUnits="userSpaceOnUse">
      <stop stop-color="#67A635"/>
      <stop offset="1" stop-color="#005B30"/>
    </linearGradient>
    <linearGradient id="paint6_linear_2271_36607" x1="81.1286" y1="152.303" x2="81.1286" y2="11.9455" gradientUnits="userSpaceOnUse">
      <stop stop-color="#67A635"/>
      <stop offset="1" stop-color="#005B30"/>
    </linearGradient>
  </defs>
</svg>