<svg xmlns="http://www.w3.org/2000/svg" width="163" height="163" viewBox="0 0 163 163" fill="none">
  <circle cx="81.5" cy="81.5" r="81.5" fill="url(#paint0_linear_2271_36615)"/>
  <g style="mix-blend-mode:soft-light">
    <circle cx="81.7565" cy="81.778" r="74.3991" stroke="black" stroke-width="5"/>
  </g>
  <path fill-rule="evenodd" clip-rule="evenodd" d="M95.613 91.5703C95.5158 91.5703 95.4673 91.5703 95.4216 91.5813C95.3811 91.5911 95.3425 91.6073 95.3071 91.6293C95.2671 91.654 95.233 91.6887 95.1649 91.7579L82.4455 104.672C82.1143 105.008 81.9487 105.176 81.9382 105.32C81.929 105.445 81.98 105.567 82.0756 105.649C82.1857 105.742 82.4217 105.742 82.8936 105.742L116.71 105.743C116.807 105.743 116.855 105.743 116.901 105.732C116.941 105.722 116.98 105.706 117.015 105.684C117.055 105.659 117.089 105.625 117.157 105.556L129.923 92.6414C130.256 92.3051 130.422 92.1369 130.433 91.9926C130.442 91.8675 130.391 91.7454 130.296 91.664C130.185 91.5703 129.949 91.5703 129.476 91.5703H95.613Z" fill="white"/>
  <path fill-rule="evenodd" clip-rule="evenodd" d="M33.0976 119.039C32.759 119.376 32.5897 119.544 32.578 119.689C32.5679 119.814 32.6186 119.937 32.7144 120.019C32.8247 120.114 33.0636 120.114 33.5413 120.114H51.7117C51.8076 120.114 51.8556 120.114 51.9007 120.103C51.9408 120.093 51.979 120.077 52.0142 120.056C52.0538 120.032 52.0877 119.998 52.1557 119.93L55.8758 116.224C56.0313 116.069 56.109 115.991 56.1985 115.962C56.2773 115.937 56.3622 115.937 56.441 115.962C56.5305 115.991 56.6082 116.069 56.7637 116.224L60.4838 119.93C60.5518 119.998 60.5857 120.032 60.6253 120.056C60.6605 120.077 60.6987 120.093 60.7388 120.103C60.7839 120.114 60.8319 120.114 60.9278 120.114H79.0982C79.5759 120.114 79.8148 120.114 79.9251 120.019C80.0209 119.937 80.0716 119.814 80.0615 119.689C80.0498 119.544 79.8805 119.376 79.5419 119.039L66.7362 106.294C66.5795 106.139 66.5012 106.061 66.4718 105.971C66.446 105.891 66.446 105.806 66.4718 105.727C66.5011 105.637 66.5793 105.559 66.7359 105.403L79.5411 92.6444C79.8793 92.3075 80.0484 92.139 80.0599 91.9943C80.07 91.8688 80.0193 91.746 79.9236 91.6642C79.8132 91.5699 79.5746 91.5699 79.0972 91.5699L60.9587 91.5697C60.8629 91.5697 60.8149 91.5697 60.7698 91.5805C60.7298 91.59 60.6916 91.6058 60.6565 91.6273C60.6169 91.6514 60.5829 91.6852 60.515 91.7528L56.7634 95.4864C56.6081 95.641 56.5304 95.7183 56.4409 95.7473C56.3621 95.7728 56.2774 95.7728 56.1986 95.7473C56.1091 95.7183 56.0314 95.641 55.8761 95.4864L52.1245 91.7528C52.0566 91.6852 52.0226 91.6514 51.983 91.6273C51.9479 91.6058 51.9097 91.59 51.8697 91.5805C51.8246 91.5697 51.7767 91.5697 51.6808 91.5697L33.5423 91.5699C33.0649 91.5699 32.8263 91.5699 32.7159 91.6642C32.6202 91.746 32.5695 91.8688 32.5795 91.9943C32.5911 92.139 32.7602 92.3075 33.0984 92.6444L45.9036 105.403C46.0602 105.559 46.1384 105.637 46.1677 105.727C46.1935 105.806 46.1935 105.891 46.1677 105.971C46.1383 106.061 46.06 106.139 45.9033 106.294L33.0976 119.039Z" fill="white"/>
  <path fill-rule="evenodd" clip-rule="evenodd" d="M63.9155 81.3818C63.9836 81.4507 64.0177 81.4852 64.0576 81.5098C64.0929 81.5317 64.1315 81.5478 64.1719 81.5576C64.2174 81.5686 64.2659 81.5686 64.3628 81.5686L129.43 81.5681C129.901 81.5681 130.137 81.5681 130.248 81.4745C130.343 81.3933 130.394 81.2713 130.385 81.1463C130.374 81.0021 130.209 80.834 129.878 80.4978L117.158 67.5838C117.09 67.5146 117.056 67.48 117.016 67.4552C116.981 67.4333 116.942 67.4171 116.902 67.4073C116.856 67.3962 116.807 67.3962 116.71 67.3962H51.5965C51.1236 67.3962 50.8871 67.3962 50.7769 67.49C50.6813 67.5713 50.6303 67.6934 50.6397 67.8186C50.6504 67.9628 50.8167 68.131 51.1492 68.4674L63.9155 81.3818Z" fill="white"/>
  <path d="M51.5994 57.0586C51.1275 57.0586 50.8915 57.0586 50.7814 56.965C50.6859 56.8838 50.6348 56.7618 50.644 56.6368C50.6546 56.4926 50.8202 56.3245 51.1513 55.9883L63.8707 43.0743C63.9389 43.0051 63.973 42.9705 64.0129 42.9457C64.0483 42.9238 64.087 42.9076 64.1274 42.8978C64.1731 42.8867 64.2217 42.8867 64.3188 42.8867H129.432C129.905 42.8867 130.142 42.8867 130.252 42.9805C130.348 43.0618 130.399 43.1839 130.389 43.3091C130.379 43.4533 130.212 43.6215 129.88 43.9579L117.113 56.8723C117.045 56.9412 117.011 56.9757 116.971 57.0003C116.936 57.0222 116.897 57.0383 116.857 57.0481C116.812 57.0591 116.763 57.0591 116.666 57.0591L51.5994 57.0586Z" fill="white"/>
  <defs>
    <linearGradient id="paint0_linear_2271_36615" x1="81.5" y1="0" x2="81.5" y2="163" gradientUnits="userSpaceOnUse">
      <stop stop-color="#8F6FEA"/>
      <stop offset="1" stop-color="#4D25C1"/>
    </linearGradient>
  </defs>
</svg>